<svg xmlns="http://www.w3.org/2000/svg" id="Calque_1" data-name="Calque 1" viewBox="0 0 657.72 195.7">
  <path d="M478.16,94.96V59.36c0-5.47,5.28-8.6,10.09-5.99,.38,.21,.76,.44,1.11,.71,2.52,1.97,5.2,2.1,8.12,.93,2.65-1.07,5.32-2.29,8.1-2.84,15.76-3.1,30.17,6.26,33.76,21.9,2.02,8.81,1.39,17.43-3.1,25.44-4.87,8.67-12.53,13.13-22.36,14.03-4.74,.43-9.3-.29-13.74-2-1.27-.49-2.73-.74-4.08-.68-2.8,.12-4.57,2.14-4.65,5.25-.12,4.23-.08,8.47-.11,12.7v2.16c-.06,3.61-2.92,6.44-6.52,6.44s-6.59-2.82-6.59-6.48c-.01-11.99,0-23.97,0-35.96h-.03Zm48.81-12.98c-.18-1.11-.31-3.12-.84-5.02-1.81-6.55-5.81-11.2-12.51-12.93-6.71-1.73-12.83-.3-17.68,4.83-4.53,4.78-5.91,10.68-5.02,17.09,2.18,15.6,19.03,19.43,28.64,12.54,5.31-3.81,7.24-9.3,7.41-16.49v-.02Z" fill="#ffffff"/>
  <path d="M463.21,82.54c0,7.79-.02,15.59,0,23.38,.01,2.84-1.09,5.01-3.71,6.16-2.59,1.13-4.99,.65-7.07-1.31-1.97-1.85-4.24-2.29-6.75-1.3-.96,.38-1.93,.78-2.85,1.24-15.83,7.87-34.65-.07-39.69-16.99-3.32-11.16-2.17-21.87,4.97-31.41,8.58-11.47,24.55-13.29,34.84-7.68,.63,.34,1.31,.59,1.97,.86,2.63,1.06,5,.69,7.08-1.29,1.52-1.45,3.38-1.94,5.42-1.72,3.52,.38,5.78,2.92,5.79,6.46,.01,7.87,0,15.75,0,23.62v-.02Zm-12.56,.4c0-3.72-.76-6.9-2.42-10.14-5.82-11.3-21.76-12.78-29.33-2.69-3.4,4.53-4.39,9.75-3.82,15.3,1.39,13.41,13.48,18.64,23.46,15.39,7.34-2.39,12.11-9.46,12.11-17.87h0Z" fill="#ffffff"/>
  <path d="M213.21,67.01V28.65c0-3.42,1.87-6.09,4.82-6.95,4.25-1.24,8.29,1.89,8.37,6.52,.04,2.52,0,5.03,0,7.55,0,9.23-.01,18.46,0,27.69,.01,4.93,4.67,8.23,9.06,6.37,.99-.42,1.93-1.16,2.66-1.96,4.07-4.45,8.04-8.99,12.12-13.43,3.2-3.48,8.64-2.25,9.92,2.21,.57,1.97,.2,3.81-1.18,5.37-2.54,2.87-5.11,5.71-7.66,8.58-.61,.69-1.21,1.39-1.73,2.14-1.41,2.02-1.9,4.27-1.07,6.6,.68,1.9,1.5,3.79,2.53,5.52,3.8,6.33,7.73,12.59,11.58,18.89,2.01,3.29,.57,7.62-3.07,8.56-3.51,.92-6.37,.31-8.31-2.92-3.87-6.43-7.89-12.77-11.83-19.15-1.38-2.23-3.36-3.52-5.94-3.75-3.67-.33-6.73,2.29-6.94,6.21-.22,4.18-.09,8.38-.16,12.58-.01,.91-.1,1.85-.36,2.71-.96,3.14-3.59,4.86-6.84,4.6-2.8-.23-5.42-2.75-5.86-5.67-.09-.63-.11-1.27-.12-1.91v-38h0Z" fill="#ffffff"/>
  <path d="M633.65,87.03h-13.55c-3.61,0-5.39,2.95-3.57,6.03,3.87,6.56,9.88,8.97,17.22,8.6,3.79-.19,7.22-1.47,10.36-3.66,2.95-2.05,6.76-1.32,8.67,1.53,1.9,2.84,1.12,6.44-1.86,8.48-6.34,4.36-13.46,5.86-21.03,5.58-5.95-.22-11.51-1.81-16.44-5.21-6.51-4.48-10.4-10.72-11.93-18.41-1.65-8.32-.94-16.44,3.22-23.94,5.24-9.43,13.55-13.95,24.21-14.44,14.21-.65,23.73,10,27.1,18.52,.85,2.14,1.23,4.57,1.32,6.88,.2,5.23-2.75,8.69-7.91,9.64-1.29,.24-2.62,.34-3.93,.35-3.96,.04-7.91,.02-11.87,.02v.03Zm-3.2-10.43c3.52,0,7.03,0,10.55,0,2.86-.02,4.07-1.66,3.25-4.41-.64-2.17-1.93-3.94-3.62-5.4-3.92-3.36-8.54-3.94-13.41-3.06-4.74,.86-8.33,3.38-10.2,7.94-1.26,3.06,.06,4.92,3.36,4.92h10.07Z" fill="#ffffff"/>
  <path d="M334.61,82.55v-23.14c0-3.81,2.24-6.43,5.92-6.92,1.93-.26,3.64,.37,5.08,1.66,2.79,2.5,5.86,2.92,9.18,1.23,3.44-1.75,6.96-3.26,10.84-3.6,6.68-.6,13.04,.16,18.27,4.93,3.31,3.02,5.16,6.92,5.95,11.23,.58,3.16,.92,6.41,.97,9.63,.12,9.31,.05,18.62,.04,27.93,0,3.53-1.78,6.03-4.81,6.9-4.19,1.2-8.36-1.89-8.37-6.25-.03-8.47,.07-16.94-.11-25.41-.06-2.63-.61-5.32-1.38-7.85-1.25-4.12-4.2-6.59-8.48-7.36-5.01-.9-9.74-.32-13.83,2.96-3.46,2.78-5.04,6.63-5.69,10.88-.27,1.73-.36,3.5-.37,5.25-.04,7.03,0,14.07-.02,21.1,0,3.12-1.54,5.46-4.2,6.5-4,1.56-8.41-1.07-8.91-5.33-.06-.51-.07-1.04-.07-1.55v-22.78h-.01Z" fill="#ffffff"/>
  <path d="M289.65,137.44c-4.6,.02-7.68-4.31-6.05-8.62,2.02-5.33,4.1-10.64,6.21-15.94,.9-2.25,.84-4.37-.13-6.6-6.45-14.9-12.86-29.81-19.27-44.73-1.83-4.25,.56-8.49,5.08-9.08,2.67-.35,5.35,1.25,6.48,3.95,2.11,5.08,4.19,10.18,6.26,15.28,.94,2.31,2.01,4.52,3.84,6.28,3.29,3.16,7.7,3.14,10.66-.34,1.34-1.58,2.43-3.48,3.22-5.4,2.14-5.2,4.03-10.5,6.08-15.74,1.2-3.08,4.32-4.63,7.62-3.87,2.85,.65,4.96,3.52,4.72,6.52-.07,.82-.32,1.65-.62,2.42-9.28,23.78-18.57,47.55-27.86,71.32-1.16,2.97-3.29,4.53-6.23,4.54h0Z" fill="#ffffff"/>
  <path d="M571.1,113.65c-6.63-.04-12.9-1.49-18.67-4.84-2.32-1.35-3.36-3.52-2.97-6.16,.33-2.22,2.12-4.08,4.49-4.6,1.64-.36,3.15,.05,4.58,.9,4.75,2.8,9.91,3.79,15.32,3.01,1.55-.22,3.19-.93,4.43-1.88,2.92-2.25,2.69-6.16-.5-7.95-2.38-1.34-5.02-2.23-7.55-3.3-3.85-1.63-7.88-2.93-11.54-4.91-9.2-4.97-10.28-14.06-8.28-20.29,1.73-5.4,5.74-8.71,10.93-10.45,8.61-2.89,17.02-1.98,25.05,2.18,3.05,1.58,4.04,5.13,2.44,8-1.72,3.1-5.12,4.16-8.2,2.48-3.24-1.77-6.65-2.89-10.37-2.95-2.02-.03-3.88,.48-5.47,1.76-2.32,1.86-2.53,4.93-.43,7.04,2.11,2.12,4.87,3.14,7.56,4.27,4.38,1.83,8.82,3.53,13.1,5.56,3.91,1.85,7.04,4.64,8.08,9.09,2.26,9.65-1.62,18.91-13.01,21.92-2.91,.77-5.96,.97-8.95,1.43-.02-.1-.03-.2-.05-.3h0Z" fill="#ffffff"/>
  <path d="M657.66,154.11v1.71h-254.52v-1.71h254.52Z" fill="#ffffff"/>
  <path d="M510,173.94l-16.86,5.34c.63,2.6,3.77,4.57,6.93,4.37,3.11-.2,5.62-1.53,7.36-4.1,1.07-1.58,1.93-3.3,2.86-4.97,.85-1.53,1.63-3.11,2.5-4.63,3.84-6.81,14.75-6.88,18.89,.79,.76,1.4,1.32,3.07,1.4,4.64,.19,4.1,.07,8.22,.07,12.43h-4.36v-1.2c0-3.36,.03-6.71,0-10.07-.04-4.07-2.84-7.25-6.5-7.43-2.6-.12-4.6,1.03-5.89,3.21-1.24,2.09-2.2,4.34-3.43,6.44-.98,1.68-2.04,3.36-3.33,4.81-4.81,5.42-13.75,5.74-18.55,.77-3.27-3.38-4.12-8.74-2.08-13.02s6.38-6.76,11.02-6.31c4.71,.45,8.63,3.82,9.9,8.5,.03,.11,.04,.22,.07,.45v-.02Zm-17.61,1.69c3.97-1.26,7.85-2.49,11.76-3.73-1.41-2.29-4.29-3.37-6.84-2.65-2.77,.78-4.88,3.44-4.93,6.38h.01Z" fill="#ffffff"/>
  <path d="M464.6,165.27h4.46c.03,.55,.07,1.06,.11,1.67,6.52-3.51,12.12-2.67,16.13,3.8,2.7,4.36,1.78,10.13-1.75,13.84-3.63,3.8-8.34,4.24-14.37,1.27v9.85h-4.58v-30.42h0Zm17.8,10.83c-.02-.21-.03-.69-.13-1.16-.55-2.65-1.97-4.63-4.58-5.53-2.36-.82-4.51-.24-6.31,1.45-1.84,1.73-2.53,3.96-2.25,6.43,.32,2.88,1.77,5.03,4.54,6.08,2.51,.96,4.73,.24,6.58-1.58,1.49-1.47,2.15-3.33,2.14-5.69h.01Z" fill="#ffffff"/>
  <path d="M98.89,106.17c0,5-3.87,8.9-8.86,8.91-4.99,0-8.92-3.89-8.93-8.86,0-4.95,3.94-8.93,8.88-8.97,4.92-.03,8.91,3.96,8.91,8.91h0Z" fill="#ffffff"/>
  <path d="M108.35,154.44c.03,4.87-3.93,8.88-8.79,8.92-5.03,.04-9.04-3.9-9.06-8.89-.01-4.91,3.97-8.9,8.92-8.93,4.91-.03,8.91,3.96,8.93,8.91h0Z" fill="#ffffff"/>
  <path d="M94.7,139.22c-4.97,0-8.88-3.92-8.88-8.91s3.93-8.87,8.92-8.87,8.92,3.97,8.92,8.91-3.98,8.88-8.95,8.88h-.01Z" fill="#ffffff"/>
  <path d="M452,187.9c-6.28-.02-11.21-5.15-11.19-11.62,.02-6.24,5.1-11.38,11.23-11.39,6.28,0,11.27,5.2,11.24,11.73-.03,6.25-5.09,11.31-11.29,11.28h.01Zm6.81-11.46c0-4.27-3.19-7.56-7.12-7.33-4.29,.25-7.31,4.7-6.21,9.13,1,4.02,4.75,6.36,8.42,5.26,2.91-.88,4.91-3.75,4.92-7.06h-.01Z" fill="#ffffff"/>
  <path d="M22.88,63.72c0-4.93,3.99-8.94,8.9-8.94s8.92,4,8.93,8.93c0,4.91-4,8.93-8.92,8.93s-8.91-3.97-8.91-8.92Z" fill="#ffffff"/>
  <path d="M54.66,81.63c-4.96,0-8.93-3.98-8.9-8.91,.03-4.97,3.96-8.88,8.93-8.88s8.91,3.94,8.9,8.9c0,4.95-3.96,8.88-8.93,8.88h0Z" fill="#ffffff"/>
  <path d="M121.37,47.62c-4.92,0-8.93-4.01-8.91-8.92,.02-4.94,4-8.9,8.94-8.9s8.91,3.98,8.91,8.92-3.98,8.89-8.94,8.9Z" fill="#ffffff"/>
  <path d="M17.8,54.75c0,4.94-3.99,8.88-8.95,8.86C3.91,63.59-.02,59.61,0,54.64c.02-4.95,4.01-8.9,8.95-8.86,4.97,.04,8.85,3.98,8.84,8.97h.01Z" fill="#ffffff"/>
  <path d="M139.87,31.31c-5.02,0-8.93-3.85-8.95-8.83-.02-4.95,3.94-8.94,8.87-8.95,4.93-.01,8.95,3.97,8.96,8.88,0,4.97-3.91,8.9-8.89,8.9h0Z" fill="#ffffff"/>
  <path d="M102.95,46.1c4.98,0,8.91,3.93,8.9,8.88,0,4.93-4,8.9-8.94,8.9s-8.86-3.95-8.85-8.94c0-5.03,3.84-8.85,8.89-8.84h0Z" fill="#ffffff"/>
  <path d="M115.25,90.18c0,4.88-3.89,8.7-8.8,8.68-4.8-.02-8.63-3.91-8.63-8.74s3.86-8.73,8.76-8.72c4.89,0,8.69,3.85,8.67,8.79h0Z" fill="#ffffff"/>
  <path d="M115.97,147.09c-4.91,0-8.72-3.82-8.72-8.74s3.89-8.75,8.76-8.73c4.86,.02,8.7,3.93,8.67,8.83-.02,4.83-3.87,8.63-8.71,8.64h0Z" fill="#ffffff"/>
  <path d="M99.12,23.84c4.87,0,8.78,3.89,8.77,8.74,0,4.85-3.92,8.73-8.79,8.72-4.79,0-8.66-3.87-8.72-8.69-.05-4.82,3.88-8.77,8.74-8.77h0Z" fill="#ffffff"/>
  <path d="M120.01,114.31c-.03,4.83-4.03,8.75-8.85,8.68-4.81-.07-8.66-3.96-8.66-8.75s3.99-8.79,8.79-8.75c4.86,.04,8.75,3.98,8.72,8.81h0Z" fill="#ffffff"/>
  <path d="M13.6,85.99c-4.87,0-8.74-3.78-8.75-8.58-.02-4.96,3.76-8.83,8.62-8.84,4.92-.02,8.83,3.8,8.85,8.65,.02,4.87-3.85,8.77-8.72,8.78h0Z" fill="#ffffff"/>
  <path d="M45.19,86.29c.01,4.84-3.93,8.78-8.76,8.77-4.77,0-8.7-3.92-8.75-8.68-.05-4.82,3.9-8.81,8.72-8.82,4.87,0,8.77,3.87,8.79,8.73Z" fill="#ffffff"/>
  <path d="M50.63,95.31c0-4.94,3.78-8.69,8.74-8.68,4.85,0,8.66,3.8,8.7,8.64,.03,4.86-3.85,8.77-8.72,8.78-4.9,0-8.72-3.82-8.72-8.74Z" fill="#ffffff"/>
  <path d="M126.31,16.3c0,4.89-3.84,8.74-8.74,8.74s-8.76-3.92-8.73-8.77c.04-4.87,3.94-8.71,8.81-8.69,4.79,.02,8.65,3.91,8.65,8.72h.01Z" fill="#ffffff"/>
  <path d="M80.68,40.11c4.9,0,8.73,3.83,8.74,8.73,0,4.87-3.86,8.7-8.78,8.69-4.85-.01-8.65-3.82-8.66-8.67,0-4.93,3.79-8.76,8.7-8.76h0Z" fill="#ffffff"/>
  <path d="M595.48,187.04h-3.84v-1.94c0-3.04,.01-6.07,0-9.11-.01-2.13-.93-3.08-2.94-3.1-1.93-.02-3.29,1.27-3.29,3.17-.01,3.2,0,6.39,0,9.59v1.38h-3.92v-1.31c0-3.2,.02-6.39,0-9.59-.02-2.63-1.88-3.89-4.38-3.02-1.26,.44-1.85,1.25-1.85,2.6v11.32h-3.84v-17.02c1.03,0,2.04-.11,3,.06,.37,.06,.63,.76,1.02,1.28,1.19-1.07,2.81-1.71,4.65-1.66,1.89,.05,3.54,.62,4.57,2.5,1.8-2.1,4-2.83,6.6-2.37,2.54,.45,4.05,2,4.18,4.93,.17,4.06,.04,8.14,.04,12.3h0Z" fill="#ffffff"/>
  <path d="M597.28,170.06h3.44c.1,.43,.2,.88,.33,1.46,1.45-1.42,3.12-1.97,4.99-1.82,2.94,.24,5.09,1.98,5.68,5.13,.4,2.15,.52,4.48,.17,6.63-1,6.19-6.81,7.37-10.73,4.34v7.73h-3.87v-23.48h-.01Zm3.8,8.47c0,.92,.06,1.84-.01,2.75-.1,1.38,.65,2.17,1.76,2.69,1.98,.92,4.1,.08,4.91-1.99,.78-1.99,.79-4.05,.24-6.09-.17-.63-.51-1.26-.92-1.78-.89-1.15-2.52-1.5-4.02-.98-1.39,.49-1.96,1.36-1.96,3.01v2.39h0Z" fill="#ffffff"/>
  <path d="M120.82,82.82c-4.22,.02-7.72-3.43-7.77-7.66-.05-4.3,3.39-7.77,7.72-7.8,4.32-.02,7.75,3.41,7.75,7.75s-3.45,7.69-7.71,7.71h.01Z" fill="#ffffff"/>
  <path d="M10.84,97.35c0-4.25,3.45-7.69,7.7-7.69s7.78,3.45,7.77,7.76c-.02,4.23-3.49,7.7-7.72,7.71-4.29,0-7.76-3.47-7.75-7.78Z" fill="#ffffff"/>
  <path d="M68.22,44.2c-.03,4.31-3.5,7.69-7.85,7.66-4.24-.03-7.6-3.48-7.58-7.79,.02-4.35,3.43-7.68,7.83-7.64,4.27,.04,7.63,3.48,7.6,7.77Z" fill="#ffffff"/>
  <path d="M130.17,115.64c4.37,0,7.8,3.38,7.79,7.7,0,4.26-3.42,7.68-7.69,7.71-4.29,.03-7.82-3.46-7.82-7.73s3.44-7.67,7.72-7.68h0Z" fill="#ffffff"/>
  <path d="M49.19,106.42c0,4.26-3.43,7.69-7.69,7.7-4.33,0-7.82-3.44-7.81-7.74,0-4.2,3.5-7.7,7.72-7.73,4.28-.03,7.78,3.47,7.78,7.76h0Z" fill="#ffffff"/>
  <path d="M117.81,99.14c0-4.27,3.43-7.67,7.7-7.68,4.3,0,7.75,3.48,7.73,7.8-.02,4.25-3.46,7.66-7.73,7.67-4.33,0-7.72-3.42-7.7-7.79h0Z" fill="#ffffff"/>
  <path d="M97.52,3.9c4.31,.06,7.68,3.55,7.61,7.89-.07,4.24-3.53,7.57-7.85,7.53-4.25-.04-7.67-3.52-7.62-7.76,.05-4.32,3.53-7.72,7.86-7.66h0Z" fill="#ffffff"/>
  <path d="M71.26,27.87c0-4.3,3.34-7.68,7.64-7.73,4.28-.05,7.76,3.42,7.76,7.75s-3.38,7.69-7.66,7.71c-4.37,.01-7.73-3.35-7.74-7.72h0Z" fill="#ffffff"/>
  <path d="M64.35,123.15c-4.29,0-7.7-3.38-7.72-7.65-.02-4.39,3.33-7.77,7.69-7.77s7.77,3.41,7.74,7.74c-.03,4.28-3.45,7.68-7.71,7.68Z" fill="#ffffff"/>
  <path d="M417.97,187.1c-.91,0-1.71-.06-2.5,.02-1.02,.1-1.74-.12-1.77-1.08-1.4,.45-2.77,1.18-4.19,1.28-3.42,.26-5.91-1.76-6.14-4.66-.24-3.06,1.77-5.35,5.25-5.82,1.57-.21,3.17-.22,4.75-.32,.39-1.86-.24-3.28-1.66-3.71-1.9-.58-3.47,.18-4.24,2.07h-3.71c.05-1.94,1.1-3.19,2.61-4.07,2.18-1.27,4.54-1.46,6.94-.79,2.67,.75,4.03,2.62,4.06,5.49,.04,2.91,.02,5.82,.11,8.73,.03,.9,.29,1.78,.48,2.84v.02Zm-4.63-8.17c-1.52,.21-3.04,.28-4.48,.66-1.22,.33-1.8,1.62-1.55,2.76,.24,1.14,1.14,1.94,2.42,1.89,2.68-.09,4.51-1.23,3.61-5.31Z" fill="#ffffff"/>
  <path d="M622.77,176.63c.14-2.34-.49-3.52-1.92-3.85-1.92-.45-3.2,.21-4.12,2.13h-3.66c-.02-1.51,.68-2.61,1.74-3.5,2.3-1.93,6.41-2.3,9.05-.87,1.91,1.03,2.77,2.7,2.83,4.8,.04,1.64-.03,3.27,.02,4.91,.07,2.25,.2,4.5,.31,6.86-.89,0-2.02,.1-3.1-.05-.42-.06-.75-.7-1.23-1.18-1.2,.96-2.72,1.59-4.51,1.52-2.82-.1-5.07-1.83-5.44-4.29-.43-2.88,1-5.14,3.94-5.96,1.14-.32,2.35-.39,3.54-.5,.82-.07,1.66,0,2.55,0h0Zm-.08,2.32c-1.53,.19-3.05,.24-4.48,.61-1.3,.34-1.82,1.51-1.59,2.84,.19,1.09,1.13,1.81,2.44,1.86,2.82,.1,4.08-1.58,3.63-5.31Z" fill="#ffffff"/>
  <path d="M643.87,190.67c2.45,.3,3.78-.83,4.27-3,.11-.5,.11-1.11-.06-1.59-1.7-4.94-3.45-9.86-5.18-14.78-.13-.37-.24-.74-.42-1.29,1.3,0,2.48-.06,3.66,.04,.28,.02,.63,.52,.75,.86,.98,2.99,1.9,6,2.85,9.01,.11,.36,.25,.72,.5,1.41,.84-2.77,1.59-5.23,2.33-7.68,.07-.23,.13-.46,.2-.69,.99-3.28,1.3-3.47,4.95-2.79-.43,1.28-.85,2.55-1.28,3.82-1.76,5.13-3.5,10.26-5.33,15.37-.4,1.1-1.02,2.18-1.77,3.08-1.24,1.51-3,1.71-4.81,1.38-.26-.05-.6-.49-.64-.78-.09-.7-.03-1.43-.03-2.36h.01Z" fill="#ffffff"/>
  <path d="M570.42,178.59c-.09,4.14-1.84,7.1-4.99,8.3-5.33,2.02-10.66-1.44-10.88-7.18-.06-1.68,.12-3.46,.64-5.05,1.1-3.37,4.23-5.24,7.76-4.97,3.69,.28,6.43,2.64,7.13,6.18,.18,.9,.23,1.82,.34,2.72h0Zm-3.73-.28c-.33-1.11-.59-2.4-1.1-3.58-.58-1.32-1.8-1.91-3.2-1.92-1.47,0-2.65,.7-3.26,2.04-1.07,2.4-1.16,4.87-.07,7.28,.67,1.48,1.9,2.19,3.55,2.12,1.63-.07,2.72-.92,3.25-2.38,.39-1.07,.52-2.23,.82-3.57h.01Z" fill="#ffffff"/>
  <path d="M423.02,187.07h-3.77v-17.01h3.47c.06,.52,.12,.98,.16,1.29,1.34-.54,2.63-1.29,4.01-1.55,3.47-.67,6.02,1.16,6.21,4.69,.23,4.13,.05,8.28,.05,12.52h-3.72c-.02-.41-.05-.84-.06-1.27v-9.58c0-1.81-.54-2.74-1.7-3.1-1.62-.51-3.5,.08-4.34,1.45-.23,.37-.29,.9-.3,1.35-.02,3.27-.01,6.55-.01,9.82v1.39Z" fill="#ffffff"/>
  <path d="M642.51,187.1h-3.12c-.19,0-.38-.04-.68-.07v-5.3c0-2.08,.05-4.16-.06-6.23-.1-1.85-1.17-2.68-3.04-2.61-1.94,.07-3.33,1.33-3.34,3.02v11.1h-3.73v-16.91h3.47c.08,.44,.17,.93,.23,1.26,1.26-.52,2.5-1.28,3.84-1.54,3.59-.72,6.2,1.16,6.38,4.79,.21,4.1,.05,8.21,.05,12.49Z" fill="#ffffff"/>
  <path d="M554.6,176.09h-3.63c-.05-.13-.1-.23-.14-.34-.6-1.98-1.76-2.98-3.4-2.94-1.82,.04-3.16,1.09-3.49,3.16-.25,1.63-.26,3.34-.06,4.98,.26,2.08,1.52,3.21,3.19,3.33,1.98,.15,3.06-.63,3.89-2.83h3.42c.11,2.1-1.31,4.18-3.54,5.23-4.93,2.33-10.28-.6-10.96-6.06-.28-2.27-.26-4.55,.72-6.7,1.27-2.79,3.91-4.34,7.17-4.23,3.03,.1,5.37,1.63,6.27,4.15,.25,.69,.35,1.43,.54,2.26h.02Z" fill="#ffffff"/>
  <path d="M43.25,34.15c3.3,0,5.92,2.62,5.95,5.92,.02,3.33-2.65,6.03-5.98,6.03s-5.98-2.63-5.98-6.01,2.59-5.95,6.01-5.94Z" fill="#ffffff"/>
  <path d="M132.97,56.21c3.36-.01,6.02,2.62,6.02,5.97s-2.62,5.96-5.89,6c-3.33,.04-6.07-2.62-6.1-5.93-.03-3.33,2.63-6.02,5.97-6.04Z" fill="#ffffff"/>
  <path d="M55.67,23.88c-.01-3.34,2.65-6.04,5.98-6.03,3.3,0,6.03,2.74,6.01,6.03-.01,3.26-2.68,5.93-5.95,5.95-3.36,.03-6.03-2.61-6.04-5.95Z" fill="#ffffff"/>
  <path d="M142.41,116.41c-3.35,0-6-2.67-5.97-6.01,.03-3.28,2.67-5.92,5.95-5.94,3.32-.02,6.02,2.65,6.04,5.98,.02,3.33-2.65,5.97-6.02,5.97h0Z" fill="#ffffff"/>
  <path d="M68.62,126.67c3.35,0,6.02,2.67,6,6-.02,3.31-2.76,6.03-6.05,5.98-3.35-.04-5.94-2.71-5.92-6.09,.02-3.29,2.66-5.9,5.97-5.9h0Z" fill="#ffffff"/>
  <path d="M131.74,86.34c0-3.33,2.67-6.02,5.99-6.02s6,2.7,5.99,6.03c0,3.26-2.66,5.92-5.94,5.95-3.33,.03-6.03-2.63-6.04-5.96h0Z" fill="#ffffff"/>
  <path d="M74.14,7.56c.01-3.3,2.62-5.94,5.9-5.98,3.27-.04,6.05,2.7,6.07,5.99,.02,3.31-2.67,6-6.01,6s-5.97-2.63-5.96-6.01Z" fill="#ffffff"/>
  <path d="M28.84,114.63c0,3.35-2.69,6-6.03,5.96-3.35-.04-5.96-2.71-5.93-6.07,.03-3.27,2.71-5.93,5.97-5.92,3.34,0,5.99,2.67,5.98,6.02h0Z" fill="#ffffff"/>
  <path d="M45.67,129.59c-3.29-.02-5.9-2.64-5.91-5.95-.01-3.32,2.68-6.01,6.01-6,3.31,0,6.02,2.74,5.98,6.04-.04,3.35-2.7,5.93-6.08,5.91Z" fill="#ffffff"/>
  <path d="M75.58,145.46c.01,2.05-1.64,3.73-3.69,3.77-2.1,.04-3.81-1.64-3.82-3.75,0-2.07,1.62-3.73,3.69-3.77,2.1-.04,3.81,1.64,3.83,3.75h-.01Z" fill="#ffffff"/>
  <path d="M142.11,56.33c-2.16,0-3.77-1.63-3.75-3.79,.02-2.06,1.68-3.72,3.73-3.72s3.81,1.76,3.79,3.82c-.03,2.04-1.71,3.69-3.77,3.69h0Z" fill="#ffffff"/>
  <path d="M67.27,.86c2.05,.02,3.73,1.68,3.75,3.72,.02,2.07-1.72,3.8-3.82,3.78-2.08-.02-3.8-1.79-3.74-3.85,.06-2.06,1.73-3.67,3.8-3.65h0Z" fill="#ffffff"/>
  <path d="M48.97,140.18c-2.13,0-3.82-1.66-3.8-3.76,.02-2.05,1.68-3.7,3.74-3.71,2.14,0,3.82,1.66,3.79,3.77-.02,2.08-1.65,3.7-3.73,3.7Z" fill="#ffffff"/>
  <path d="M147.8,100.82c.02-2.09,1.63-3.71,3.7-3.72,2.12,0,3.79,1.68,3.77,3.79-.02,2.05-1.68,3.71-3.73,3.71s-3.76-1.63-3.74-3.79h0Z" fill="#ffffff"/>
  <path d="M30.32,40.86c-2.07,0-3.72-1.63-3.75-3.69-.03-2.11,1.63-3.78,3.77-3.78s3.72,1.58,3.74,3.67c.02,2.13-1.63,3.8-3.76,3.8Z" fill="#ffffff"/>
  <path d="M29.8,127.38c.01,2.14-1.66,3.84-3.76,3.82-2.06-.02-3.7-1.67-3.72-3.74,0-2.13,1.67-3.84,3.76-3.82,2.05,.02,3.71,1.69,3.72,3.74Z" fill="#ffffff"/>
  <path d="M48.76,24.6c-2.09,0-3.71-1.62-3.73-3.7-.01-2.15,1.61-3.78,3.77-3.77,2.06,0,3.73,1.65,3.75,3.69,.02,2.1-1.67,3.79-3.79,3.78Z" fill="#ffffff"/>
  <path d="M150.51,76.77c0,2.1-1.6,3.69-3.7,3.7-2.12,0-3.81-1.69-3.78-3.79,.03-2.05,1.68-3.68,3.75-3.68,2.18,0,3.73,1.56,3.72,3.77h0Z" fill="#ffffff"/>
  <path d="M515.85,187.83h-4.44c-.04-2.1-.37-4.06,1.14-5.92,1.32-1.63,2.17-3.65,3.3-5.63v11.55Z" fill="#ffffff"/>
  <path d="M48.87,145.78c.01-1.37,1.11-2.42,2.47-2.38s2.37,1.13,2.33,2.52c-.04,1.32-1.09,2.34-2.4,2.33-1.36,0-2.4-1.08-2.39-2.47h-.01Z" fill="#ffffff"/>
  <path d="M155.87,69.75c-.02,1.36-1.09,2.4-2.45,2.38-1.34-.02-2.44-1.14-2.41-2.45,.02-1.32,1.16-2.42,2.48-2.4,1.35,.02,2.4,1.11,2.39,2.46h0Z" fill="#ffffff"/>
  <path d="M160.57,93.88c-.02,1.37-1.07,2.39-2.44,2.38-1.35-.02-2.4-1.1-2.37-2.45,.02-1.37,1.07-2.4,2.44-2.38,1.35,.02,2.39,1.09,2.37,2.45Z" fill="#ffffff"/>
  <path d="M30.79,136.75c.02,1.38-.99,2.44-2.36,2.46-1.35,.02-2.45-1.03-2.47-2.37s1.03-2.42,2.38-2.45c1.37-.03,2.43,.99,2.45,2.36h0Z" fill="#ffffff"/>
  <path d="M55.43,2.43c0-1.38,1.03-2.43,2.39-2.43s2.43,1.1,2.44,2.42c0,1.31-1.11,2.43-2.43,2.44-1.34,0-2.4-1.06-2.4-2.42h0Z" fill="#ffffff"/>
  <path d="M146.36,45.59c0-1.38,1.02-2.42,2.38-2.42s2.4,1.06,2.41,2.42c0,1.34-1.07,2.42-2.41,2.43-1.36,0-2.38-1.03-2.38-2.43Z" fill="#ffffff"/>
  <path d="M36.96,18.67c0-1.32,1.1-2.45,2.41-2.45s2.42,1.12,2.43,2.44c0,1.35-1.06,2.42-2.41,2.42s-2.41-1.04-2.42-2.4h-.01Z" fill="#ffffff"/>
  <path d="M23.32,34.9c0,1.39-.98,2.39-2.38,2.4-1.42,0-2.41-.96-2.41-2.36s1-2.42,2.37-2.43c1.37,0,2.41,1.01,2.42,2.39Z" fill="#ffffff"/>
  <path d="M71.75,154.89c-.03-1.36,1-2.45,2.35-2.48,1.32-.03,2.45,1.05,2.48,2.37,.03,1.35-1.02,2.44-2.37,2.47-1.38,.03-2.44-.99-2.46-2.35h0Z" fill="#ffffff"/>
  <path d="M53.07,154.79c-.54-.76-1.15-1.25-1.08-1.6,.1-.47,.73-.83,1.13-1.24,.38,.42,.98,.81,1.07,1.28,.06,.35-.56,.82-1.11,1.55h0Z" fill="#ffffff"/>
  <path d="M164.67,88.63c-.43,.3-.82,.79-1.28,.87-.72,.12-1.29-.41-1.14-1.12,.09-.45,.66-1.07,1.06-1.1,.44-.03,.92,.53,1.38,.83,0,.18,0,.35,0,.53h-.01Z" fill="#ffffff"/>
  <path d="M155.25,40.42c-.47,.29-.96,.84-1.39,.79-.4-.04-1.01-.71-1.01-1.11s.61-.99,1.04-1.09c.71-.17,1.14,.36,1.36,1.41Z" fill="#ffffff"/>
  <path d="M13.89,31.87c.27,.48,.8,.99,.75,1.43-.04,.39-.68,.96-1.12,1.03-.73,.12-1.21-.5-1.06-1.2,.1-.47,.59-.85,.9-1.27,.18,0,.35,0,.53,0Z" fill="#ffffff"/>
  <path d="M32.03,15.3c.54,.76,1.02,1.16,1.1,1.62,.12,.72-.35,1.18-1.13,1.18s-1.23-.51-1.12-1.2c.07-.46,.58-.85,1.14-1.61h.01Z" fill="#ffffff"/>
  <path d="M84.32,56.11c.3,.42,.78,.8,.87,1.26,.14,.74-.41,1.29-1.1,1.16-.45-.08-1.08-.65-1.12-1.05-.04-.43,.51-.91,.8-1.38h.55Z" fill="#ffffff"/>
  <path d="M77.62,162.19c-.77,.55-1.17,1.05-1.63,1.11-.72,.1-1.19-.42-1.16-1.17,.02-.74,.49-1.25,1.22-1.08,.46,.1,.83,.58,1.57,1.14Z" fill="#ffffff"/>
  <path d="M30.6,142.84c.26,.45,.72,.89,.75,1.35,.03,.71-.54,1.25-1.24,1.02-.43-.14-.98-.77-.97-1.17,0-.43,.61-.85,.95-1.28,.17,.02,.35,.05,.52,.07h0Z" fill="#ffffff"/>
  <path d="M158.41,65.55c-.31-.42-.9-.86-.86-1.25,.04-.43,.58-1.05,1.01-1.16,.71-.19,1.29,.36,1.21,1.09-.05,.46-.55,.87-.85,1.31-.17,0-.34,.01-.52,.02h.01Z" fill="#ffffff"/>
</svg>